<svg width="90" height="32" viewBox="0 0 90 32" fill="none" xmlns="http://www.w3.org/2000/svg">
<path fill-rule="evenodd" clip-rule="evenodd" d="M41.872 23.1559L40.5533 22.9886V13.2236C40.5533 11.8429 40.1048 11.396 38.6731 11.396C37.6623 11.396 36.6812 11.5355 35.9798 11.7041C35.3047 11.8981 35.0814 12.1737 35.0814 12.7003C35.0814 13.1964 35.3047 13.4461 35.9502 13.5849L37.466 13.8339V21.663C37.466 21.663 36.3712 23.1845 34.38 23.1845C32.4716 23.1845 31.405 22.1897 31.405 19.6694V13.2236C31.405 11.8429 30.984 11.396 29.5261 11.396C28.7669 11.396 27.6735 11.5355 27.0279 11.7041C26.3541 11.8981 26.1295 12.1737 26.1295 12.7003C26.1295 13.1964 26.3541 13.4727 26.9997 13.5849L28.3473 13.8339V20.4172C28.3473 23.7649 30.1435 25.5069 33.3135 25.5069C36.5958 25.5069 37.6906 23.2941 37.6906 23.2941L37.7471 23.322V23.7649C37.7471 24.874 38.2521 25.396 39.4296 25.396C40.3294 25.396 41.1982 25.2313 41.8444 25.0075C42.4611 24.8149 42.7415 24.5386 42.7415 24.0438C42.7415 23.5146 42.5169 23.2668 41.872 23.1559V23.1559ZM60.0334 22.9408C59.6407 22.9408 59.248 23.1593 58.4618 23.1593C57.3388 23.1593 56.8338 22.5257 56.8338 20.7838V13.6433H59.2749C60.1464 13.6433 60.5949 13.201 60.5949 12.4553C60.5949 11.8755 60.2849 11.5408 59.5284 11.5408H56.8338V8.85648C56.8338 8.19503 56.468 7.86099 55.7941 7.86099C54.9522 7.86099 54.5326 8.30726 54.2515 9.49468L53.8023 11.5408H52.8212C51.9792 11.5408 51.5011 12.0402 51.5011 12.7328C51.5011 13.3671 51.838 13.6433 52.5972 13.6433H53.7754V21.5568C53.7754 23.9356 54.7303 25.4019 57.3388 25.4019C59.1357 25.4019 60.061 24.7923 60.3414 24.5446C60.5949 24.2929 60.7052 24.0173 60.7052 23.6866C60.7052 23.217 60.4241 22.9408 60.0334 22.9408V22.9408ZM50.6726 23.3412L49.3526 22.98V13.2156C49.3526 11.8343 48.9054 11.388 47.473 11.388C46.4905 11.388 45.5067 11.5262 44.8053 11.6962C44.1046 11.8881 43.8813 12.165 43.8813 12.691C43.8813 13.1878 44.1046 13.4368 44.7784 13.5763L46.2659 13.8266V22.98L44.8625 23.3678C44.1618 23.561 43.9654 23.7835 43.9654 24.2823C43.9654 24.8341 44.3575 25.2226 45.0588 25.2226H50.364C51.0653 25.2226 51.487 24.8062 51.487 24.1986C51.487 23.7563 51.2899 23.5073 50.6726 23.3412V23.3412ZM47.7252 9.53386C48.8751 9.53386 49.7453 8.67717 49.7453 7.51698C49.7453 7.32506 49.7204 7.14309 49.6753 6.97242C49.6915 6.96312 49.7056 6.95382 49.7224 6.94386C52.2099 5.41377 58.1417 2.34362 65.399 2.34827C70.0041 2.35159 75.1451 3.56557 80.3776 7.2002C80.3561 7.32041 80.3433 7.44459 80.3433 7.57343C80.3433 8.73561 81.1564 9.53386 82.3352 9.53386C83.4851 9.53386 84.3553 8.67717 84.3553 7.51698C84.3553 6.3807 83.5423 5.57846 82.3634 5.57846C81.8618 5.57846 81.4132 5.7425 81.0669 6.02142C75.6401 2.27987 70.2186 0.991506 65.399 0.994826C57.6165 1.00346 51.4076 4.29542 48.8704 5.87465C48.5597 5.68539 48.1818 5.57846 47.7534 5.57846C46.6042 5.57846 45.734 6.43914 45.734 7.57343C45.734 8.73561 46.5463 9.53386 47.7252 9.53386V9.53386ZM82.2969 0C80.03 0 77.9998 0.972247 76.5889 2.50832C77.4672 2.89815 78.3481 3.34243 79.2317 3.84516C80.0717 3.1784 81.1355 2.77661 82.2969 2.77661C84.9968 2.77661 87.1864 4.93362 87.1864 7.59335C87.1864 10.2571 84.9968 12.4141 82.2969 12.4141C79.5982 12.4141 77.4087 10.2571 77.4087 7.59335C77.4087 7.20153 77.4625 6.82034 77.5533 6.45442C76.6912 5.97095 75.8398 5.55588 74.9925 5.19328C74.739 5.94771 74.5944 6.75525 74.5944 7.59335C74.5944 9.05106 75.0113 10.4118 75.7336 11.568H72.9394C72.2663 11.568 71.9294 11.9027 71.9294 12.3722C71.9294 12.9254 72.1809 13.2024 72.9663 13.5052L73.7525 13.7841L71.2825 20.0619C70.7775 21.3921 70.4405 22.4991 70.4405 22.4991H70.3841C70.3841 22.4991 70.0471 21.3921 69.5421 20.0931L67.0755 13.7841L67.832 13.5052C68.6175 13.2024 68.869 12.9254 68.869 12.3722C68.869 11.9027 68.5321 11.568 67.8878 11.568H63.1725C62.5283 11.568 62.1914 11.9027 62.1914 12.3722C62.1914 12.9254 62.4429 13.3126 63.2021 13.561L63.8752 13.8107L68.7856 25.7327C67.6901 28.1965 66.8213 28.9954 65.3352 28.9954C64.2955 28.9954 64.0998 28.7211 63.3971 28.7211C62.7529 28.7211 62.2478 29.2743 62.2478 30.131C62.2478 31.1584 63.0333 31.7647 64.4932 31.7647C66.9901 31.7647 69.4863 30.3283 72.1809 23.8798L76.3643 13.8107L77.0355 13.561C77.1592 13.5205 77.2681 13.476 77.3656 13.4275C78.7025 14.5273 80.4207 15.1894 82.2969 15.1894C86.5509 15.1894 90 11.7885 90 7.59335C90 3.40087 86.5509 0 82.2969 0V0ZM24.0099 22.8226C23.5042 22.8226 22.8606 23.2642 21.4 23.2642C18.846 23.2642 17.2193 21.6617 17.2193 18.4514C17.2193 15.0479 18.8742 13.4175 21.1492 13.4175C21.9057 13.4175 22.2984 13.6115 22.2984 13.6115L22.8304 15.4909C23.0287 16.1543 23.3374 16.4326 23.8411 16.4326C24.3461 16.4326 24.7106 16.1543 24.7402 15.4909C24.7664 14.7444 24.7664 14.4947 24.7664 13.9721V13.7748C24.7664 12.5595 24.6837 12.2832 24.4033 12.0076C23.954 11.5647 23.0287 11.2619 21.4847 11.2619C17.1352 11.2619 14.0755 14.2736 14.0755 18.8658C14.0755 23.0716 16.5454 25.5069 20.5594 25.5069C22.5513 25.5069 23.8969 24.9258 24.4591 24.3978C24.6837 24.1787 24.8242 23.9296 24.8242 23.6255C24.8242 23.0995 24.5142 22.8226 24.0099 22.8226V22.8226ZM8.36351 21.9639C8.36351 21.9639 7.35413 23.237 5.50148 23.237C4.09803 23.237 3.20028 22.3803 3.20028 21.331C3.20028 20.2498 4.15452 19.6694 6.258 19.6694C7.54847 19.6694 8.36351 19.862 8.36351 19.862V21.9639ZM12.826 23.1539L11.5624 22.9879C11.3668 20.3348 11.4777 18.2044 11.4777 15.9644C11.4777 12.7534 9.99156 11.2884 6.34274 11.2884C3.7618 11.2884 1.71278 12.0601 1.12302 12.6425C0.926663 12.8643 0.814361 13.0297 0.814361 13.3332C0.814361 13.8605 1.17884 14.2178 1.71278 14.2178C2.33011 14.2178 3.28434 13.5291 5.52837 13.5291C7.54847 13.5291 8.41932 14.3858 8.41932 16.7633V18.0656C8.41932 18.0656 7.38103 17.8703 5.97758 17.8703C1.91049 17.8703 0 19.4197 0 21.5767C0 23.7636 1.7686 25.5069 4.49008 25.5069C7.52292 25.5069 8.58946 23.488 8.58946 23.488L8.64393 23.5146V23.7636C8.64393 24.8713 9.14962 25.3953 10.3285 25.3953C11.2814 25.3953 12.1529 25.2293 12.7984 25.0101C13.4158 24.8129 13.6955 24.5386 13.6955 24.0405C13.6955 23.5146 13.4709 23.2642 12.826 23.1539V23.1539Z" fill="#FF6600"/>
</svg>
